<svg width="64" height="32" viewBox="0 0 48 16" fill="none" xmlns="http://www.w3.org/2000/svg">
<path d="M9.61587 0.539486L8.79413 5.19788H5.94165C3.28047 5.19788 0.74394 7.35312 0.27381 10.0133L0.0748186 11.1455C-0.393121 13.8057 1.38244 15.961 4.04362 15.961H6.42272C8.36229 15.961 10.21 14.3915 10.5512 12.4527L12.7422 0.0371094L9.61587 0.539486ZM7.59188 12.0133C7.48691 12.6123 6.94751 13.0997 6.34837 13.0997H4.90299C3.70688 13.0997 2.90656 12.1292 3.11647 10.9313L3.24112 10.2253C3.45322 9.02965 4.59466 8.05695 5.79077 8.05695H8.28978L7.59188 12.0133ZM31.5838 15.9608L33.4556 5.34627H36.4163L34.5445 15.9608H31.5838ZM31.9041 5.46867C31.7557 6.31059 31.6066 7.15251 31.4582 7.99444C30.0555 7.55871 28.6084 7.69747 28.1637 7.7861C27.6836 10.5116 27.2028 13.2378 26.722 15.9634H23.7593C24.1616 13.6829 25.5361 5.89457 25.5361 5.89457C26.4997 5.49569 28.866 4.68617 31.9041 5.46867ZM19.8996 5.19607H17.5949C15.3492 5.19607 13.2085 7.01468 12.8127 9.25954L12.347 11.8979C11.9511 14.1427 13.4491 15.9614 15.6948 15.9614H20.5973L21.1002 13.1088H16.4928C15.745 13.1088 15.2442 12.5033 15.3777 11.7536L15.393 11.664H22.8211L23.2453 9.25954C23.641 7.01468 22.1432 5.19607 19.8975 5.19607H19.8996ZM20.2736 9.03221L20.2561 9.18521H15.8391L15.8631 9.0497C15.9964 8.30214 16.6788 7.64421 17.4287 7.64421H19.154C19.8953 7.64421 20.3961 8.29122 20.2736 9.03221ZM45.0055 5.34627H47.9684C46.9591 8.02865 44.6461 12.5916 42.4055 15.9608H39.4426C38.4141 12.7541 37.75 8.28624 37.6233 5.34627H40.5863C40.6397 6.30528 41.0692 9.86242 41.5594 12.3475C42.9037 9.92988 44.3857 6.75799 45.0033 5.34627H45.0055Z" fill="#FF444F"/>
</svg>
