<svg xmlns="http://www.w3.org/2000/svg" viewBox="0 0 512 512" style="enable-background:new 0 0 512 512" xml:space="preserve"><style>.st293{fill:#dab12b}.st294{fill:#c8a028}.st296{fill:#f8f28b}</style><g id="BULINE"><circle id="XMLID_2471_" cx="256" cy="256" r="256" style="fill:#3b5880"/></g><g id="Icons"><g id="XMLID_3843_"><circle id="XMLID_4059_" cx="231.3" cy="215" r="191" style="fill:#47688f"/><path id="XMLID_4053_" d="M493.6 200.3c-3.4-2-7.3-3.3-11.4-3.7-.8-.1-1.6-.1-2.4-.1-3.3 0-6.4.6-9.2 1.7-.4-2.5-1.1-4.8-2-7.1-4.5-12-14.7-21.2-27.3-24.3-3-.8-6.2-1.2-9.5-1.2h-.3c-.3-2.2-.8-4.3-1.6-6.3-2.2-5.8-6.4-10.5-11.7-13.6-4-2.3-8.5-3.6-13.4-3.6-1.7 0-3.3.2-4.9.5-.2-4.9-2.1-9.4-5.1-13-4-4.7-10-7.8-16.7-7.8-9.3 0-17.3 5.8-20.4 14-.9 2.3-1.4 4.8-1.4 7.4-.3-.3-.5-.6-.8-.9-4.4-4.6-10.5-7.4-17.3-7.4-5.8 0-11.2 2.1-15.4 5.5-5.3 4.4-8.7 11-8.7 18.5v.9c-2.2-.9-4.6-1.4-7.1-1.4-8.3 0-15.4 5.5-17.9 13-21.6.2-39.1 17.8-39.1 39.4 0 5 .9 9.8 2.6 14.2 5.7 14.8 20 25.3 36.8 25.3h190.3c.8 0 1.6 0 2.4-.1 8.7-.8 16.2-5.6 20.6-12.7 2.5-4.1 4-8.9 4-14.1.1-9.8-5.2-18.4-13.1-23.1zM393.5 215h-.6l.5-.5c.1.1.1.3.1.5z" style="fill:#3f5b78"/><path id="XMLID_4050_" d="M493.6 200.3c-3.4-2-7.3-3.3-11.4-3.7-.8-.1-1.6-.1-2.4-.1-3.3 0-6.4.6-9.2 1.7-.4-2.5-1.1-4.8-2-7.1-4.5-12-14.7-21.2-27.3-24.3-3-.8-6.2-1.2-9.5-1.2h-.3c-.3-2.2-.8-4.3-1.6-6.3-6 1.7-10.7 6.3-12.6 12.2-21.6.2-39.1 17.8-39.1 39.4 0 5 .9 9.8 2.6 14.2 5.7 14.8 20 25.3 36.8 25.3h62.2c.8 0 1.6 0 2.4-.1 8.7-.8 16.2-5.6 20.6-12.7 2.5-4.1 4-8.9 4-14.1 0-9.9-5.3-18.5-13.2-23.2z" style="fill:#354e6c"/><g id="XMLID_4011_"><path id="XMLID_4049_" d="M388.8 216.7c0 87-70.5 157.5-157.5 157.5S73.8 303.7 73.8 216.7 144.3 59.2 231.3 59.2c21.8 0 42.7 4.4 61.6 12.5 39.3 16.7 70.4 48.9 85.6 88.9 6.6 17.4 10.3 36.3 10.3 56.1z" style="fill:#eec82f"/><path id="XMLID_4048_" class="st293" d="M153.7 216.7c0-73.2 49.9-134.7 117.6-152.4-12.8-3.3-26.1-5.1-39.9-5.1-87 0-157.5 70.5-157.5 157.5s70.5 157.5 157.5 157.5c13.8 0 27.2-1.8 39.9-5.1-67.7-17.7-117.6-79.2-117.6-152.4z"/><path id="XMLID_4047_" class="st294" d="M355.7 211.5c0 14-8.9 25.9-21.3 30.3-3.4 1.2-7.1 1.9-10.9 1.9-17.8 0-32.2-14.4-32.2-32.2 0-17.8 14.4-32.2 32.2-32.2 3.8 0 7.5.7 10.9 1.9 12.4 4.4 21.3 16.3 21.3 30.3z"/><ellipse id="XMLID_4046_" class="st293" cx="334.4" cy="211.5" rx="21.3" ry="30.3"/><path id="XMLID_4044_" class="st294" d="M256.5 123.9c0 8.3-5.3 15.3-12.6 18-2 .7-4.2 1.1-6.5 1.1-10.5 0-19.1-8.6-19.1-19.1 0-10.6 8.6-19.1 19.1-19.1 2.3 0 4.4.4 6.5 1.1 7.4 2.6 12.6 9.7 12.6 18z"/><ellipse id="XMLID_4040_" class="st293" cx="243.9" cy="123.9" rx="12.6" ry="18"/><path id="XMLID_4038_" class="st294" d="M269.5 316.7c0 8.3-5.3 15.3-12.6 18-2 .7-4.2 1.1-6.5 1.1-10.5 0-19.1-8.6-19.1-19.1 0-10.6 8.6-19.1 19.1-19.1 2.3 0 4.4.4 6.5 1.1 7.3 2.6 12.6 9.7 12.6 18z"/><ellipse id="XMLID_4037_" class="st293" cx="256.8" cy="316.7" rx="12.6" ry="18"/><path id="XMLID_4031_" class="st294" d="M242.5 233.4c0 13.1-8.4 24.3-20.1 28.5-3.2 1.1-6.6 1.8-10.2 1.8-16.7 0-30.3-13.6-30.3-30.3 0-16.7 13.6-30.3 30.3-30.3 3.6 0 7 .6 10.2 1.8 11.7 4.1 20.1 15.3 20.1 28.5z"/><ellipse id="XMLID_4016_" class="st293" cx="222.4" cy="233.4" rx="20.1" ry="28.5"/><path id="XMLID_4015_" d="M378.5 160.6c-4 .7-8.1 1-12.3 1-41.3 0-74.8-33.5-74.8-74.8 0-5.2.5-10.2 1.5-15.1 39.2 16.7 70.3 48.9 85.6 88.9z" style="fill:#f0d15c"/></g><circle id="XMLID_3980_" class="st296" cx="413.2" cy="93.1" r="16"/><circle id="XMLID_3979_" class="st296" cx="40.2" cy="237.2" r="16"/><circle id="XMLID_3978_" class="st296" cx="461.2" cy="355.1" r="16"/><circle id="XMLID_3976_" class="st296" cx="145.2" cy="59.2" r="11"/><circle id="XMLID_3975_" class="st296" cx="302.3" cy="30.7" r="11"/><circle id="XMLID_3974_" class="st296" cx="413.2" cy="283.3" r="11"/><circle id="XMLID_3969_" class="st296" cx="212.2" cy="477.3" r="11"/><path id="XMLID_3965_" d="M419.2 375.8c-5-3-10.7-4.9-16.8-5.4-1.1-.1-2.3-.2-3.5-.2-4.8 0-9.3.9-13.6 2.4-.6-3.6-1.6-7.1-2.9-10.4-6.7-17.6-21.6-31-40.1-35.6-4.5-1.1-9.2-1.7-14-1.7h-.4c-1.7-12.5-9.1-23.1-19.5-29.1-5.8-3.3-12.5-5.2-19.7-5.2-2.4 0-4.8.3-7.1.7-.4-7.2-3.1-13.8-7.5-19-5.9-7-14.6-11.4-24.5-11.4-13.7 0-25.3 8.5-29.9 20.6-1.3 3.4-2 7-2.1 10.8-.4-.4-.8-.9-1.2-1.3-6.4-6.7-15.4-10.8-25.4-10.8-8.6 0-16.4 3-22.5 8.1-7.8 6.5-12.7 16.2-12.7 27.1 0 .4 0 .8.1 1.3-3.2-1.3-6.7-2-10.4-2-12.2 0-22.6 8-26.2 19.1-31.7.3-57.3 26-57.3 57.8 0 7.3 1.4 14.3 3.8 20.7 8.3 21.7 29.4 37.1 54 37.1h279c1.2 0 2.4-.1 3.5-.2 12.8-1.1 23.8-8.3 30.2-18.7 3.7-6 5.9-13.1 5.9-20.7.2-14.5-7.6-27.1-19.2-34zm-147.6 21.5c.2-.3.5-.5.7-.7.1.2.1.5.1.7h-.8z" style="fill:#5686c5"/><path id="XMLID_3961_" d="M402.5 411.8c-1.1-.1-2.3-.2-3.5-.2-4.8 0-9.3.9-13.6 2.4-2.2-12.2-8.1-23.1-16.6-31.4-9.2-9-21.5-14.9-35.1-16.1-1.7-.2-3.5-.2-5.2-.2h-.4c-2.3-17.1-15.3-30.7-32.1-33.7-2.3-.4-4.6-.6-7.1-.6-2.4 0-4.8.3-7.1.7-.7-12.9-8.9-23.8-20.4-28.3-3.6-1.4-7.5-2.2-11.5-2.2-17.5 0-31.7 14-32 31.4-2.8-3.2-6.2-6-10-8-4.9-2.6-10.5-4.1-16.5-4.1-15.8 0-29.2 10.4-33.7 24.8-1 3.3-1.6 6.8-1.6 10.4 0 .4 0 .8.1 1.2-3.2-1.3-6.7-2-10.4-2-12.2 0-22.6 8-26.2 19.1-24.4.2-45.2 15.5-53.5 37.1 8.3 21.7 29.4 37.1 54 37.1h279c1.2 0 2.4-.1 3.5-.2 12.8-1.1 23.8-8.3 30.2-18.7-6.5-10.2-17.5-17.4-30.3-18.5zm-130.9 26.9.7-.7c.1.2.1.5.1.7h-.8z" style="fill:#527fae"/></g></g></svg>