<svg xmlns="http://www.w3.org/2000/svg" xml:space="preserve" width="655.359" height="655.359" style="shape-rendering:geometricPrecision;text-rendering:geometricPrecision;image-rendering:optimizeQuality;fill-rule:evenodd;clip-rule:evenodd" viewBox="0 0 6.827 6.827"><defs><style>.fil0{fill:none;fill-rule:nonzero}.fil2{fill:#eceff1}</style></defs><g id="Layer_x0020_1"><g id="_311100128"><path id="_311109776" class="fil0" d="M3.207 5.751"/><path id="_311109152" class="fil0" d="M1.074 3.209"/><path id="_311109056" class="fil0" d="M.862 3.189"/><path id="_311109104" d="M4.097.895a2.194 2.194 0 0 1 .962 2.018 2.195 2.195 0 0 1-.778 1.495 2.196 2.196 0 0 1-1.608.507 2.193 2.193 0 0 1-1.82-1.299c.051.526.263 1.01.589 1.4a2.558 2.558 0 0 0 1.742.906 2.558 2.558 0 0 0 1.873-.59 2.558 2.558 0 0 0 .906-1.743 2.558 2.558 0 0 0-.59-1.872A2.56 2.56 0 0 0 4.097.895z" style="fill:#b0bec5;fill-rule:nonzero"/><circle id="_311109272" class="fil2" cx="4.995" cy="1.667" r=".019"/><circle id="_311108888" class="fil2" cx="4.556" cy="1.189" r=".045"/><circle id="_311108936" class="fil2" cx="4.755" cy="1.28" r=".05"/><circle id="_311108696" class="fil2" cx="4.811" cy="1.482" r=".061"/><circle id="_311109368" class="fil2" cx="5.027" cy="1.468" r=".045"/><circle id="_311108672" class="fil2" cx="4.925" cy="1.405" r=".019"/><circle id="_311108912" class="fil2" cx="4.712" cy="1.368" r=".019"/><circle id="_311107952" class="fil2" cx="4.461" cy="1.085" r=".019"/><circle id="_311108528" class="fil2" cx="5.166" cy="1.646" r=".061"/><circle id="_311108552" class="fil2" cx="5.013" cy="1.813" r=".045"/><circle id="_311108216" class="fil2" cx="5.315" cy="1.832" r=".019"/><circle id="_311108024" class="fil2" cx="5.12" cy="2.027" r=".061"/><circle id="_311108144" class="fil2" cx="5.485" cy="2.071" r=".045"/><circle id="_311108000" class="fil2" cx="5.315" cy="2.045" r=".019"/><circle id="_311107928" class="fil2" cx="5.227" cy="2.24" r=".045"/><circle id="_311108456" class="fil2" cx="5.608" cy="2.408" r=".061"/><circle id="_311107232" class="fil2" cx="5.208" cy="2.472" r=".019"/><circle id="_311107784" class="fil2" cx="5.418" cy="2.492" r=".045"/><circle id="_311107832" class="fil2" cx="5.485" cy="2.302" r=".045"/><circle id="_311107160" class="fil2" cx="5.271" cy="2.711" r=".045"/><circle id="_311107760" class="fil2" cx="5.714" cy="2.728" r=".061"/><circle id="_311107256" class="fil2" cx="5.502" cy="2.818" r=".045"/><circle id="_311107688" class="fil2" cx="5.459" cy="2.685" r=".019"/><circle id="_311107712" class="fil2" cx="5.227" cy="2.987" r=".061"/><circle id="_311107304" class="fil2" cx="5.805" cy="3.031" r=".045"/><circle id="_311107616" class="fil2" cx="5.485" cy="3.138" r=".045"/><circle id="_311107088" class="fil2" cx="5.528" cy="3.005" r=".019"/><circle id="_311106920" class="fil2" cx="5.181" cy="3.246" r=".061"/><circle id="_311107016" class="fil2" cx="5.227" cy="3.413" r=".045"/><circle id="_311107040" class="fil2" cx="5.502" cy="3.369" r=".045"/><circle id="_311106992" class="fil2" cx="5.806" cy="3.215" r=".061"/><circle id="_311106968" class="fil2" cx="5.698" cy="3.351" r=".045"/><circle id="_311106680" class="fil2" cx="5.635" cy="3.2" r=".019"/><circle id="_311106464" class="fil2" cx="5.352" cy="3.288" r=".019"/><circle id="_311106728" class="fil2" transform="scale(-.1765 .1765) rotate(77.819 -20.24 8.024)" r=".107"/><circle id="_311106320" class="fil2" transform="matrix(-.08807 .40798 .40798 .08807 1.06 4.08)" r=".107"/><circle id="_311106608" class="fil2" transform="matrix(-.0989 .45818 .45818 .0989 1.107 4.294)" r=".107"/><circle id="_311106200" class="fil2" transform="matrix(-.1207 .5591 .5591 .1207 1.293 4.391)" r=".107"/><circle id="_311106176" class="fil2" transform="matrix(-.08807 .40798 .40798 .08807 1.233 4.599)" r=".107"/><circle id="_311105816" class="fil2" transform="scale(-.1765 .1765) rotate(77.819 -19.128 8.521)" r=".107"/><circle id="_311106104" class="fil2" transform="scale(-.1765 .1765) rotate(77.819 -18.392 7.88)" r=".107"/><circle id="_311105648" class="fil2" transform="scale(-.1765 .1765) rotate(77.819 -16.69 7.798)" r=".107"/><circle id="_311105720" class="fil2" transform="matrix(-.1207 .5591 .5591 .1207 1.378 4.772)" r=".107"/><circle id="_311106224" class="fil2" transform="scale(-.41738 .41738) rotate(77.819 -8.8 3.245)" r=".107"/><circle id="_311105792" class="fil2" transform="scale(-.1765 .1765) rotate(77.819 -21.728 8.678)" r=".107"/><circle id="_311106056" class="fil2" transform="matrix(-.1207 .5591 .5591 .1207 1.76 4.808)" r=".107"/><circle id="_311105912" class="fil2" transform="matrix(-.08807 .40798 .40798 .08807 1.726 5.174)" r=".107"/><circle id="_311105456" class="fil2" transform="scale(-.1765 .1765) rotate(77.819 -22.477 8.074)" r=".107"/><circle id="_311105072" class="fil2" transform="scale(-.41738 .41738) rotate(77.819 -9.688 3.05)" r=".107"/><circle id="_311104928" class="fil2" transform="matrix(-.1207 .5591 .5591 .1207 2.03 5.365)" r=".107"/><circle id="_311105432" class="fil2" transform="scale(-.1765 .1765) rotate(77.819 -23.672 6.49)" r=".107"/><circle id="_311105048" class="fil2" transform="matrix(-.08807 .40798 .40798 .08807 2.152 5.197)" r=".107"/><circle id="_311105120" class="fil2" transform="matrix(-.08807 .40798 .40798 .08807 1.952 5.223)" r=".107"/><circle id="_311104832" class="fil2" transform="matrix(-.08807 .40798 .40798 .08807 2.397 5.1)" r=".107"/><circle id="_311105360" class="fil2" transform="matrix(-.1207 .5591 .5591 .1207 2.32 5.537)" r=".107"/><circle id="_311105528" class="fil2" transform="matrix(-.08807 .40798 .40798 .08807 2.453 5.349)" r=".107"/><circle id="_311105240" class="fil2" transform="scale(-.1765 .1765) rotate(77.819 -25.132 6.767)" r=".107"/><circle id="_311105480" class="fil2" transform="matrix(-.1207 .5591 .5591 .1207 2.676 5.115)" r=".107"/><circle id="_311104544" class="fil2" transform="matrix(-.08807 .40798 .40798 .08807 2.597 5.69)" r=".107"/><circle id="_311104568" class="fil2" transform="matrix(-.08807 .40798 .40798 .08807 2.769 5.399)" r=".107"/><circle id="_311104280" class="fil2" transform="scale(-.1765 .1765) rotate(77.819 -26.45 6.103)" r=".107"/><circle id="_311104376" class="fil2" transform="matrix(-.1207 .5591 .5591 .1207 2.938 5.125)" r=".107"/><circle id="_311104232" class="fil2" transform="matrix(-.08807 .40798 .40798 .08807 3.093 5.205)" r=".107"/><circle id="_311104184" class="fil2" transform="matrix(-.08807 .40798 .40798 .08807 2.991 5.465)" r=".107"/><circle id="_311104136" class="fil2" transform="matrix(-.1207 .5591 .5591 .1207 2.777 5.73)" r=".107"/><circle id="_311104040" class="fil2" transform="matrix(-.08807 .40798 .40798 .08807 2.933 5.652)" r=".107"/><circle id="_311104424" class="fil2" transform="scale(-.1765 .1765) rotate(77.819 -27.435 5.926)" r=".107"/><circle id="_311104712" class="fil2" transform="scale(-.1765 .1765) rotate(77.819 -26.943 4.686)" r=".107"/><path id="_311103896" class="fil0" d="M3.842 5.729"/><circle id="_311103920" class="fil2" transform="matrix(-.1207 .5591 .5591 .1207 3.31 5.093)" r=".107"/><circle id="_311103536" class="fil2" transform="matrix(-.08807 .40798 .40798 .08807 3.232 5.667)" r=".107"/><circle id="_311103752" class="fil2" transform="matrix(-.08807 .40798 .40798 .08807 3.404 5.377)" r=".107"/><circle id="_311103704" class="fil2" transform="scale(-.1765 .1765) rotate(77.819 -28.171 3.812)" r=".107"/><circle id="_311103680" class="fil2" transform="matrix(-.1207 .5591 .5591 .1207 3.573 5.103)" r=".107"/><circle id="_311103560" class="fil2" transform="matrix(-.08807 .40798 .40798 .08807 3.728 5.183)" r=".107"/><circle id="_311103824" class="fil2" transform="matrix(-.08807 .40798 .40798 .08807 3.626 5.443)" r=".107"/><circle id="_311103968" class="fil2" transform="matrix(-.1207 .5591 .5591 .1207 3.412 5.707)" r=".107"/><circle id="_311103440" class="fil2" transform="matrix(-.08807 .40798 .40798 .08807 3.567 5.63)" r=".107"/><circle id="_311103584" class="fil2" transform="scale(-.1765 .1765) rotate(77.819 -29.156 3.636)" r=".107"/><circle id="_311102672" class="fil2" transform="matrix(-.03724 .17253 .17253 .03724 3.578 5.28)" r=".107"/><path id="_311102480" class="fil0" d="M4.448 5.569"/><circle id="_311102888" class="fil2" transform="matrix(-.1207 .5591 .5591 .1207 3.916 4.933)" r=".107"/><circle id="_311103032" class="fil2" transform="matrix(-.08807 .40798 .40798 .08807 3.838 5.508)" r=".107"/><circle id="_311102864" class="fil2" transform="matrix(-.08807 .40798 .40798 .08807 4.01 5.217)" r=".107"/><circle id="_311102816" class="fil2" transform="scale(-.1765 .1765) rotate(77.819 -29.328 1.234)" r=".107"/><circle id="_311102768" class="fil2" transform="matrix(-.1207 .5591 .5591 .1207 4.18 4.943)" r=".107"/><circle id="_311103056" class="fil2" transform="matrix(-.08807 .40798 .40798 .08807 4.333 5.023)" r=".107"/><circle id="_311102720" class="fil2" transform="scale(-.41738 .41738) rotate(77.819 -12.91 .048)" r=".107"/><circle id="_311102600" class="fil2" transform="matrix(-.1207 .5591 .5591 .1207 4.018 5.548)" r=".107"/><circle id="_311102456" class="fil2" transform="matrix(-.08807 .40798 .40798 .08807 4.173 5.47)" r=".107"/><circle id="_311102360" class="fil2" transform="scale(-.1765 .1765) rotate(77.819 -30.313 1.057)" r=".107"/><circle id="_311102240" class="fil2" transform="scale(-.1765 .1765) rotate(77.819 -29.82 -.183)" r=".107"/><path id="_311102000" class="fil0" d="M5.088 5.249"/><circle id="_311101976" class="fil2" transform="matrix(-.1207 .5591 .5591 .1207 4.556 4.613)" r=".107"/><circle id="_311101880" class="fil2" transform="matrix(-.08807 .40798 .40798 .08807 4.478 5.188)" r=".107"/><circle id="_311101832" class="fil2" transform="matrix(-.08807 .40798 .40798 .08807 4.65 4.897)" r=".107"/><circle id="_311101712" class="fil2" transform="matrix(-.03724 .17253 .17253 .03724 4.511 4.912)" r=".107"/><circle id="_311102120" class="fil2" transform="matrix(-.1207 .5591 .5591 .1207 4.82 4.623)" r=".107"/><circle id="_311102408" class="fil2" transform="matrix(-.08807 .40798 .40798 .08807 4.973 4.703)" r=".107"/><circle id="_311102288" class="fil2" transform="matrix(-.08807 .40798 .40798 .08807 4.872 4.963)" r=".107"/><circle id="_311101160" class="fil2" transform="matrix(-.1207 .5591 .5591 .1207 4.658 5.228)" r=".107"/><circle id="_311101448" class="fil2" transform="matrix(-.08807 .40798 .40798 .08807 4.813 5.15)" r=".107"/><circle id="_311101232" class="fil2" transform="matrix(-.03724 .17253 .17253 .03724 4.679 5.057)" r=".107"/><circle id="_311101616" class="fil2" transform="matrix(-.03724 .17253 .17253 .03724 4.824 4.8)" r=".107"/><path id="_311101376" class="fil0" d="M5.878 4.254"/><circle id="_311101256" class="fil2" transform="matrix(-.1207 .5591 .5591 .1207 5.347 3.618)" r=".107"/><circle id="_311101520" class="fil2" transform="matrix(-.08807 .40798 .40798 .08807 5.268 4.192)" r=".107"/><circle id="_311101664" class="fil2" transform="matrix(-.08807 .40798 .40798 .08807 5.44 3.902)" r=".107"/><circle id="_311101136" class="fil2" transform="matrix(-.03724 .17253 .17253 .03724 5.301 3.917)" r=".107"/><circle id="_311101280" class="fil2" transform="matrix(-.1207 .5591 .5591 .1207 5.61 3.628)" r=".107"/><circle id="_311100200" class="fil2" transform="matrix(-.08807 .40798 .40798 .08807 5.764 3.708)" r=".107"/><circle id="_311100848" class="fil2" transform="matrix(-.08807 .40798 .40798 .08807 5.662 3.968)" r=".107"/><circle id="_311100896" class="fil2" transform="matrix(-.1207 .5591 .5591 .1207 5.448 4.232)" r=".107"/><circle id="_311100584" class="fil2" transform="matrix(-.08807 .40798 .40798 .08807 5.604 4.156)" r=".107"/><circle id="_311100800" class="fil2" transform="matrix(-.03724 .17253 .17253 .03724 5.47 4.062)" r=".107"/><circle id="_311100416" class="fil2" transform="matrix(-.03724 .17253 .17253 .03724 5.615 3.804)" r=".107"/><circle id="_311100680" class="fil2" transform="matrix(-.1207 .5591 .5591 .1207 5.059 3.901)" r=".107"/><circle id="_311100536" class="fil2" transform="matrix(-.1207 .5591 .5591 .1207 4.846 4.114)" r=".107"/><circle id="_311100272" class="fil2" transform="matrix(-.08807 .40798 .40798 .08807 5.075 4.311)" r=".107"/><circle id="_311100224" class="fil2" transform="matrix(-.1207 .5591 .5591 .1207 5.288 4.632)" r=".107"/><circle id="_311100296" class="fil2" transform="matrix(-.08807 .40798 .40798 .08807 4.631 4.329)" r=".107"/><circle id="_311099840" class="fil2" transform="matrix(-.08807 .40798 .40798 .08807 4.35 4.579)" r=".107"/><circle id="_311099744" class="fil2" transform="matrix(-.08807 .40798 .40798 .08807 4.16 4.693)" r=".107"/><circle id="_311100080" class="fil2" transform="matrix(-.1207 .5591 .5591 .1207 3.688 4.952)" r=".107"/><circle id="_311099600" class="fil2" transform="matrix(-.08807 .40798 .40798 .08807 5.12 4.907)" r=".107"/><circle id="_311099960" class="fil2" transform="matrix(-.08807 .40798 .40798 .08807 5.502 4.435)" r=".107"/><circle id="_311099648" class="fil2" transform="matrix(-.1207 .5591 .5591 .1207 5.059 4.526)" r=".107"/><circle id="_311099552" class="fil2" transform="scale(-.1765 .1765) rotate(77.819 -29.26 -4.712)" r=".107"/></g></g><path style="fill:none" d="M0 0h6.827v6.827H0z"/></svg>