<svg xmlns="http://www.w3.org/2000/svg" xml:space="preserve" width="655.359" height="655.359" style="shape-rendering:geometricPrecision;text-rendering:geometricPrecision;image-rendering:optimizeQuality;fill-rule:evenodd;clip-rule:evenodd" viewBox="0 0 6.827 6.827"><defs><clipPath id="id0"><path d="M3.413 0a3.413 3.413 0 1 1 0 6.827 3.413 3.413 0 0 1 0-6.827z"/></clipPath><style>.fil1{fill:#00897b}.fil3{fill:#ff6f00;fill-rule:nonzero}</style></defs><g id="Layer_x0020_1"><path d="M3.413 0a3.413 3.413 0 1 1 0 6.827 3.413 3.413 0 0 1 0-6.827z" style="fill:#26a69a"/><g style="clip-path:url(#id0)"><g id="_457169552"><path id="_4545976001" class="fil1" d="m3.476 1.576 3.786 3.786.005.007.004.006.003.008.003.007.002.008.001.008v.008L3.495 1.628V1.62l-.001-.009-.002-.007-.003-.008-.003-.007-.004-.007z"/><path id="_454597792" class="fil1" d="m3.494 1.628 3.787 3.786v.298L3.494 1.925z"/><path id="_454599304" class="fil1" d="m3.494 1.925 3.787 3.787v.008l-.002.008-.002.008-.003.007-.003.007-.004.007-.005.006-.005.006-.006.005-.006.005-.007.004-.007.003-.007.003-.008.002-.008.001H7.2L3.413 2.008h.009l.008-.002.007-.002L3.445 2l.007-.003.007-.004.006-.005.006-.005.005-.006.005-.006.004-.007.003-.007.003-.007.002-.008.001-.008z"/><path id="_454599520" class="fil1" d="M3.413 2.007 7.2 5.793H7.19l-.008-.002-.008-.002-.007-.003-.007-.003-.007-.004-.006-.005-.006-.005-3.786-3.786.006.005.006.005.007.004.007.003.007.003.008.002.008.001z"/><path id="_454599832" class="fil1" d="M2.195 2.71 5.98 6.496l-.004.007-.005.006-.006.006-.006.005-.007.004-.006.004-.008.003-.007.003-.007.001-.008.001H5.9l-.008-.001-.007-.003-.008-.003-.007-.003-3.787-3.787.008.004.007.003.008.002.008.002h.016l.007-.001.008-.002.007-.002.007-.003.007-.004.007-.004.006-.005.005-.006.005-.006z"/><path id="_454599856" class="fil1" d="M2.007 3.413 5.793 7.2v.008l-.002.008-.002.008-.003.007-.003.007-.004.007-.005.006-.005.006-.006.005-.006.005-.007.004-.007.003-.007.003-.008.002-.008.001h-.008L1.925 3.495h.009l.008-.001.008-.002.007-.003.007-.003.007-.004.006-.005.006-.005.005-.006.005-.006.004-.007L2 3.445l.003-.008.002-.007.001-.008z"/><path id="_454599328" class="fil1" d="m1.925 3.494 3.787 3.787h-.298L1.628 3.494z"/><path id="_454599160" class="fil1" d="m1.983 3.356 3.786 3.786.005.006.005.006.004.007.003.007.003.007.002.008.001.008V7.2L2.008 3.413v-.008l-.002-.008-.002-.008L2 3.382l-.003-.007-.004-.007-.005-.006z"/><path id="_454599568" class="fil1" d="m3.411 4.63 3.786 3.787-.062-.002-.062-.004-.06-.008-.06-.011-.06-.014-.057-.016-.056-.02-.056-.021-.054-.025-.052-.027-.05-.029-.05-.032-.048-.034-.046-.036L6.38 8.1 2.594 4.314l.044.038.046.036.048.034.049.032.05.03.053.026.054.024.055.022.057.02.057.016.06.014.06.01.06.008.062.005z"/><path id="_454599280" class="fil1" d="m1.628 3.494 3.786 3.787h-.008l-.008-.002-.008-.002-.007-.003-.008-.003-.006-.004-.007-.005-3.786-3.786.006.005.007.004.007.003.008.003.007.002.009.001z"/><path id="_454599448" class="fil1" d="m4.365 1.812 3.787 3.786.005.006.004.007.004.007.003.007.002.007.002.008.001.008v.015l-.002.008-.002.008-.003.007-.004.008-3.786-3.787.004-.007.003-.008.002-.007.001-.008v-.023l-.002-.008-.002-.007-.003-.008-.004-.006-.005-.007z"/><path id="_454599472" class="fil1" d="m4.376 1.907 3.786 3.787-.148.257-3.787-3.786z"/><path id="_454600528" class="fil1" d="m4.227 2.165 3.787 3.786-.005.007-.005.007L8 5.97l-.007.005-.006.005-.007.004-.007.003-.007.002-.008.002h-.023l-.008-.001-.008-.002-.007-.003-.008-.004-3.786-3.786.007.004.008.002.008.003.007.001h.024l.007-.002.008-.003.007-.003.007-.003.006-.005.006-.005.006-.006.005-.006z"/><path id="_454600264" class="fil1" d="M4.117 2.195 7.903 5.98l-.007-.004-.006-.005-.006-.006L4.098 2.18l.006.005.006.005z"/><path id="_454600384" class="fil1" d="m5.03 2.48 3.786 3.787.004.007.003.008.002.007.001.008v.023l-.002.008-.002.007-.004.007-.003.007-.005.007-.005.006-.006.005-.006.005-.007.005L5 2.59l.007-.005.006-.005.006-.005.005-.007.004-.006.004-.007.003-.007.003-.007.001-.008.001-.008v-.015l-.001-.008-.003-.008-.003-.007z"/><path id="_454600168" class="fil1" d="m5 2.59 3.786 3.787-.258.149-3.786-3.787z"/><path id="_454600408" class="fil1" d="m4.742 2.74 3.786 3.786-.007.003-.008.003-.007.003h-.008l-.008.001h-.015l-.008-.002-.007-.003-.007-.003-.007-.004-.007-.004-.006-.005-.005-.006L4.64 2.723l.006.006.006.005.006.004.007.004.007.003.008.002.007.002.008.001h.016l.008-.002.007-.002.008-.003z"/><path id="_454600432" class="fil1" d="m5.02 2.467 3.786 3.786.005.007.005.007L5.03 2.48l-.005-.007z"/><path id="_454600096" class="fil1" d="m5.261 3.362 3.787 3.786.004.006.004.007.004.007.003.007.002.008v.008l.001.009L5.28 3.413v-.008l-.002-.008-.002-.008-.002-.007-.004-.007-.004-.007z"/><path id="_454600456" class="fil1" d="m2.084 2.74 3.787 3.786-.258-.15-3.786-3.785z"/><path id="_454600600" class="fil1" d="m1.827 2.59 3.786 3.787-.007-.005-.006-.005-3.787-3.786.007.005z"/><path id="_454600120" class="fil1" d="M2.184 2.614 5.97 6.401l.005.006.005.006.004.007.003.007.002.008.002.007v.023l-.001.008-.002.008-.003.008-.004.007L2.195 2.71l.004-.008.002-.007.003-.008.001-.008v-.023l-.002-.008-.003-.007-.003-.007-.003-.007-.005-.007z"/><path id="_454600864" class="fil1" d="m2.74 2.084 3.786 3.787.003.007.003.008.003.007v.008l.001.008v.016l-.002.007-.003.007-.003.008-.004.006-.004.007-.005.006-.006.006-.006.005-.007.004L2.71 2.195l.007-.005.006-.005.006-.005.005-.006.004-.007.004-.007.003-.007.002-.007.002-.008.001-.007v-.016l-.002-.008-.002-.008-.003-.007z"/><path id="_454601344" class="fil1" d="M2.71 2.195 6.496 5.98l-.007.004-.008.003-.008.002-.008.001h-.023l-.007-.002-.008-.002-.007-.003-.007-.004-.006-.005L6.4 5.97 2.614 2.184l.006.005.007.005.007.003.007.003.007.003.008.001.008.001h.015l.008-.001.008-.003.007-.002z"/><path id="_454601104" class="fil1" d="M2.581 1.813 6.367 5.6l.005.006.005.007L2.59 1.827l-.005-.007z"/><path id="_454601392" class="fil1" d="m2.59 1.827 3.787 3.786.149.258-3.787-3.787z"/><path id="_454600984" class="fil1" d="M4.314 2.595 8.101 6.38l.038.044.036.046.034.048.032.05.03.05.026.053.024.054.022.055.02.057.016.057.013.06.011.06.008.06.004.062.002.063-.002.062-.004.062-.008.061-.01.06-.014.059-.017.058-.019.056-.022.055-.024.054-.027.053-.03.05-.03.05-.035.048-.036.046-.038.044-.04.042-.043.04-.044.039-.046.036-.048.034-.05.032-.05.03-.053.026-.054.024-.055.022-.056.02-.058.016-.06.013-.059.011-.06.008-.063.004-.062.002h-.002L3.41 4.631h.002l.063-.002.062-.005.06-.007.06-.011.06-.014.057-.016.057-.02.055-.02.054-.025.053-.027.05-.03.05-.031.048-.034.046-.036.044-.039.042-.04.04-.042.039-.044.036-.046.034-.048.031-.05.03-.05.027-.053.024-.054.022-.055.019-.057.016-.057.014-.06.01-.06.008-.06.005-.062.002-.063-.002-.062-.005-.062-.007-.061-.011-.06-.014-.059-.016-.058-.02-.056-.021-.056-.024-.053-.027-.053-.03-.05-.031-.05-.034-.048-.036-.046z"/><path id="_454600792" class="fil1" d="m4.376 4.92 3.786 3.786.004.007.003.008.002.007.002.008v.016l-.001.007-.002.008-.002.007-.003.007-.004.007-.004.007-.005.006-.006.005-.006.005-.007.005L4.346 5.03l.007-.005.007-.005.005-.005.005-.006.005-.007.004-.007.003-.007.002-.007.002-.008V4.95l-.001-.008-.002-.008-.003-.007z"/><path id="_454600720" class="fil1" d="m4.346 5.03 3.787 3.786-.008.004-.007.003-.008.002-.008.001H8.08l-.008-.002-.007-.002-.007-.004-.007-.003-.007-.005-.006-.005L4.251 5.02l.006.005.007.004.006.004.008.003.007.003.008.001.007.001h.016l.008-.001.007-.003.008-.003z"/><path id="_454601032" class="fil1" d="M4.212 4.643 8 8.429l.005.006.005.006.005.007-3.787-3.786-.004-.007-.005-.007z"/><path id="_454601152" class="fil1" d="m2.18 4.098 3.786 3.786.006.006.005.006.004.007-3.786-3.786-.005-.007-.005-.006z"/><path id="_454600936" class="fil1" d="M2.195 4.117 5.98 7.903l.004.008.003.007.002.008.001.008v.023l-.002.008-.002.007-.003.007-.004.007-.005.006-.005.006-.005.006-.007.005-.007.005-3.786-3.787.007-.004.006-.005.006-.006.005-.006.005-.006.003-.007.003-.007.003-.008.001-.007.001-.008v-.016l-.001-.007-.003-.008-.002-.008z"/><path id="_454601920" class="fil1" d="m2.165 4.227 3.786 3.787-.257.148-3.787-3.786z"/><path id="_454601944" class="fil1" d="m1.907 4.376 3.787 3.786-.008.004-.007.003-.008.002-.008.002h-.015l-.008-.001-.008-.002-.007-.002-.007-.003-.007-.004-.007-.004-.006-.005-3.786-3.787.006.005.007.005.006.004.008.003.007.002.008.002h.023l.008-.001.007-.002.008-.003z"/><path id="_454601608" class="fil1" d="m2.723 4.641 3.786 3.787.006.005.005.006.004.007.004.007.003.007.003.007.001.008.001.007v.016l-.001.008-.003.008-.003.007-.003.007-3.787-3.786.004-.007.003-.008.002-.007.002-.008v-.016l-.001-.008-.002-.007-.002-.008-.003-.007-.004-.007-.004-.006-.005-.006z"/><path id="_454601824" class="fil1" d="m2.74 4.742 3.786 3.786-.15.258L2.592 5z"/><path id="_454602136" class="fil1" d="m2.59 5 3.787 3.786-.005.007-.005.006-.005.006-.006.005-.007.005-.007.003-.007.004-.007.002-.008.002h-.023l-.008-.001-.007-.002-.008-.003-.007-.004L2.48 5.03l.008.003.007.003.008.003h.008l.008.001h.015l.008-.002.007-.003.007-.003.007-.004.006-.004.007-.005.005-.006.005-.006z"/><path id="_454602160" class="fil1" d="m2.48 5.03 3.787 3.786-.007-.005-.007-.005L2.467 5.02l.006.005z"/><path id="_454601632" class="fil1" d="M5.28 3.413 9.066 7.2v.008l-.001.008-.002.008-.003.007-.004.007-.004.007-.004.006-.006.006-.005.005-.007.005-.006.004-.007.003-.008.003-.008.002-.008.001h-.008L5.2 3.495h.008l.008-.001.008-.002.007-.003.008-.003.006-.004.006-.005.006-.005.005-.006.005-.006.004-.007.004-.007.002-.008.002-.007.002-.008z"/><path id="_454601464" class="fil1" d="m5.199 3.494 3.786 3.787h-.297L4.9 3.494z"/><path id="_454601896" class="fil1" d="m4.901 3.494 3.787 3.787h-.009l-.008-.002-.008-.002-.007-.003-.007-.003-.007-.004-.006-.005-.006-.005-3.786-3.786.006.005.006.005.007.004.007.003.007.003.008.002.008.001z"/><path id="_454601656" class="fil1" d="m5.019 4.251 3.786 3.786.005.006.005.007.003.007.004.007.002.007.002.008v.023l-.001.008-.002.008-.003.007-.004.008L5.03 4.346l.003-.007.003-.008.003-.007v-.008l.001-.008v-.015l-.002-.008-.003-.007-.003-.007-.004-.007-.004-.007z"/><path id="_454601752" class="fil1" d="m5.03 4.346 3.786 3.787-.005.007-.005.006-.005.006-.006.005-.007.004-.007.004-.007.003-.007.002-.008.002-.007.001h-.016l-.008-.002-.007-.002-.008-.003-.007-.004-3.787-3.786.008.004.007.003.008.002.008.001h.023l.008-.002.007-.002.007-.003.007-.004.007-.005.006-.005.005-.005.005-.007z"/><path id="_454602328" class="fil1" d="m4.92 4.376 3.786 3.786-.258-.148-3.786-3.787z"/><path id="_454602832" class="fil1" d="m4.662 4.227 3.786 3.787-.007-.005-.006-.005L8.429 8 4.643 4.212l.005.006.007.005z"/><path id="_454602568" class="fil1" d="m4.227 4.662 3.787 3.786.148.258-3.786-3.787z"/><path id="_454602688" class="fil1" d="M3.47 4.844 7.258 8.63l.005.006.005.006.004.007.003.007.003.007.002.008.001.008v.009L3.495 4.9v-.008l-.001-.008-.002-.008-.003-.007-.003-.007-.004-.007-.005-.006z"/><path id="_454602472" class="fil1" d="m3.494 4.901 3.787 3.787v.297L3.494 5.2z"/><path id="_454602712" class="fil1" d="M3.413 5.28 7.2 9.066H7.19l-.008-.001-.008-.002-.007-.003-.007-.004-.007-.004-.006-.004L3.362 5.26l.006.005.007.004.007.004.007.002.008.002.008.002z"/><path id="_454602736" class="fil1" d="m3.494 5.199 3.787 3.786v.008l-.002.008-.002.008-.003.008-.003.007-.004.006-.005.007-.005.005-.006.006-.006.004-.007.004-.007.004-.007.003-.008.002h-.008l-.008.001L3.413 5.28h.009l.008-.002.007-.002.008-.002.007-.004.007-.004.006-.005.006-.005.005-.006.005-.006.004-.006.003-.008.003-.007.002-.008.001-.008z"/><path id="_457169576" class="fil1" d="M3.413 1.547c.045 0 .081.036.081.08v.298a.081.081 0 0 1-.162 0v-.297c0-.045.037-.081.081-.081zm0 .649a1.217 1.217 0 1 1 0 2.435h-.002a1.217 1.217 0 0 1 0-2.435h.002zm0 2.624c.045 0 .081.036.081.081V5.2a.081.081 0 0 1-.162 0V4.9c0-.045.037-.08.081-.08zm.933-3.023a.08.08 0 0 1 .03.11l-.149.258a.08.08 0 0 1-.14-.08l.149-.258a.08.08 0 0 1 .11-.03zm.684.683a.08.08 0 0 1-.03.11l-.258.15a.08.08 0 0 1-.08-.14l.257-.15a.08.08 0 0 1 .11.03zm.169.852a.081.081 0 0 1 0 .162H4.9a.081.081 0 0 1 0-.162H5.2zm-.2.904a.08.08 0 0 1-.08.14l-.257-.149a.08.08 0 1 1 .08-.14L5 4.236zm-.772.426.15.257a.08.08 0 0 1-.141.08l-.149-.257a.08.08 0 0 1 .14-.08zm-1.517-.03a.08.08 0 0 1 .03.11L2.59 5a.08.08 0 0 1-.14-.08l.15-.258a.08.08 0 0 1 .11-.03zm-.626-.545a.08.08 0 0 1 .081.14l-.258.15a.08.08 0 0 1-.08-.141l.257-.149zm.11-1.377a.08.08 0 0 1-.11.03l-.257-.15a.08.08 0 0 1 .08-.14l.258.15a.08.08 0 0 1 .03.11zm.545-.626a.08.08 0 0 1-.14.081l-.148-.258a.08.08 0 0 1 .14-.08l.148.257zm-.732 1.33a.081.081 0 0 1-.082.08h-.297a.081.081 0 0 1 0-.162h.297c.045 0 .082.037.082.081z"/></g></g><path d="M3.413 0a3.413 3.413 0 1 1 0 6.827 3.413 3.413 0 0 1 0-6.827z" style="fill:none"/><path class="fil3" d="M3.494 1.628a.081.081 0 0 0-.162 0v.297a.081.081 0 0 0 .162 0v-.297zM3.494 4.901a.081.081 0 0 0-.162 0V5.2a.081.081 0 0 0 .162 0V4.9z"/><circle cx="3.413" cy="3.413" r="1.217" style="fill:#ffc107"/><path d="M3.411 4.63a1.217 1.217 0 0 1 0-2.434v2.435z" style="fill:#ffb205"/><path class="fil3" d="M4.376 1.907a.08.08 0 0 0-.14-.08l-.149.257a.08.08 0 0 0 .14.081l.15-.258zM2.74 4.742a.08.08 0 0 0-.14-.08l-.15.257a.08.08 0 0 0 .14.08l.15-.257zM5 2.59a.08.08 0 0 0-.08-.14l-.258.15a.08.08 0 1 0 .08.14L5 2.59zM2.165 4.227a.08.08 0 0 0-.08-.14l-.258.149a.08.08 0 0 0 .08.14l.258-.149zM5.199 3.494a.081.081 0 0 0 0-.162H4.9a.081.081 0 0 0 0 .162H5.2zM1.925 3.494a.081.081 0 0 0 0-.162h-.297a.081.081 0 0 0 0 .162h.297zM4.92 4.376a.08.08 0 0 0 .08-.14l-.258-.149a.08.08 0 0 0-.08.14l.257.15zM2.084 2.74a.08.08 0 0 0 .081-.14l-.258-.15a.08.08 0 0 0-.08.14l.257.15zM4.236 5a.08.08 0 0 0 .14-.08l-.149-.258a.08.08 0 1 0-.14.08L4.236 5zM2.6 2.165a.08.08 0 0 0 .14-.08l-.15-.258a.08.08 0 0 0-.14.08l.15.258z"/></g></svg>